<svg width="110" height="75" viewBox="0 0 110 75" fill="none" xmlns="http://www.w3.org/2000/svg">
<path d="M47 32C47 20.3504 37.1871 11 25 11C12.8129 11 3 20.3504 3 32" stroke="#414141" stroke-width="6" stroke-linecap="square"/>
<path d="M71.8571 44C71.8571 49.1562 68.9643 53.375 65.4286 53.375C61.8929 53.375 59 49.1562 59 44" stroke="#414141" stroke-width="6" stroke-linecap="square"/>
<path d="M106 44C106 48.95 102.625 53 98.5 53C94.375 53 91 48.95 91 44" stroke="#414141" stroke-width="6" stroke-linecap="square"/>
<path d="M3 33C3 22.5066 11.5066 14 22 14H28C38.4934 14 47 22.5066 47 33C47 43.4934 38.4934 52 28 52H22C11.5066 52 3 43.4934 3 33Z" fill="#FCB912"/>
<path d="M54 25.5C54 19.1487 59.1487 14 65.5 14C71.8513 14 77 19.1487 77 25.5V39.5C77 45.8513 71.8513 51 65.5 51C59.1487 51 54 45.8513 54 39.5V25.5Z" fill="#FCB912"/>
<path d="M87 25.5C87 19.1487 92.1487 14 98.5 14C104.851 14 110 19.1487 110 25.5V39.5C110 45.8513 104.851 51 98.5 51C92.1487 51 87 45.8513 87 39.5V25.5Z" fill="#FCB912"/>
</svg>
